<svg width="19" height="20" viewBox="0 0 19 20" fill="none" xmlns="http://www.w3.org/2000/svg">
<path d="M13.1553 18.9787H5.59412C2.81371 18.9787 0.686962 17.9754 1.29058 13.9365L1.99554 8.46573C2.36834 6.45095 3.65378 5.67969 4.78158 5.67969H14.001C15.1451 5.67969 16.3555 6.50849 16.7871 8.46573L17.4914 13.9365C18.0056 17.5194 15.9326 18.9787 13.1553 18.9787Z" stroke="#00ADB5" stroke-width="2" stroke-miterlimit="10" stroke-linecap="round" stroke-linejoin="round"/>
<path d="M13.2808 5.48161C13.2808 4.44376 12.8685 3.44842 12.1347 2.71455C11.4008 1.98068 10.4055 1.5684 9.36761 1.5684V1.5684C8.8523 1.56617 8.34162 1.66575 7.8649 1.86141C7.38817 2.05707 6.95479 2.34497 6.58962 2.70856C6.22445 3.07216 5.9347 3.5043 5.73698 3.98018C5.53927 4.45606 5.4375 4.9663 5.4375 5.48161V5.48161" stroke="#00ADB5" stroke-width="2" stroke-miterlimit="10" stroke-linecap="round" stroke-linejoin="round"/>
<path d="M12.0524 9.56055H12.0117" stroke="#00ADB5" stroke-width="2" stroke-miterlimit="10" stroke-linecap="round" stroke-linejoin="round"/>
<path d="M6.77113 9.56055H6.73047" stroke="#00ADB5" stroke-width="2" stroke-miterlimit="10" stroke-linecap="round" stroke-linejoin="round"/>
</svg>
