<svg width="23" height="23" viewBox="0 0 23 23" fill="none" xmlns="http://www.w3.org/2000/svg">
<path d="M21.5489 16.7955C21.5664 17.4746 21.3916 18.1449 21.0448 18.729C20.8556 19.0652 20.6126 19.3682 20.3254 19.626C19.9249 19.998 19.4471 20.2769 18.9261 20.4426C18.4052 20.6082 17.854 20.6567 17.3122 20.5843C16.7703 20.512 16.2511 20.3207 15.7919 20.0242C15.3327 19.7276 14.9447 19.3332 14.6558 18.8691C14.287 18.2977 14.0859 17.6344 14.0753 16.9544C14.0618 16.3954 14.1749 15.8405 14.4062 15.3314C14.6374 14.8223 14.9809 14.3721 15.4108 14.0145C15.9509 13.5631 16.6075 13.2734 17.305 13.1786C18.0025 13.0838 18.7126 13.1878 19.3536 13.4785C19.9946 13.7693 20.5406 14.235 20.9288 14.8223C21.3169 15.4095 21.5314 16.0943 21.5477 16.798L21.5489 16.7955Z" stroke="#00ADB5" stroke-width="2" stroke-linecap="round" stroke-linejoin="round"/>
<path d="M16.3555 16.9082L17.2987 17.8045L19.251 15.918" stroke="#00ADB5" stroke-width="2" stroke-linecap="round" stroke-linejoin="round"/>
<path d="M3.02734 7.01758L11.2754 11.7909L19.4671 7.04573" stroke="#00ADB5" stroke-width="2" stroke-linecap="round" stroke-linejoin="round"/>
<path d="M11.2754 20.2532V11.7812" stroke="#00ADB5" stroke-width="2" stroke-linecap="round" stroke-linejoin="round"/>
<path d="M20.2511 8.63273V13.9196C20.2526 13.9634 20.2495 14.0072 20.2417 14.0503C19.5693 13.4619 18.7051 13.1395 17.8116 13.1439C16.821 13.1451 15.8714 13.5391 15.171 14.2395C14.4706 14.9399 14.0765 15.8896 14.0754 16.8801C14.0741 17.5593 14.2616 18.2255 14.6171 18.8042C14.7028 18.9538 14.8029 19.0945 14.9161 19.2246L13.2065 20.1678C12.6047 20.4628 11.9433 20.6161 11.2731 20.6161C10.6028 20.6161 9.94148 20.4628 9.33962 20.1678L4.35177 17.4031C3.75642 17.0284 3.2594 16.5167 2.90225 15.9106C2.5451 15.3046 2.3382 14.6219 2.29883 13.9196V8.63273C2.3383 7.93012 2.54545 7.24718 2.90294 6.64102C3.26043 6.03487 3.75786 5.52313 4.35364 5.14861L9.3415 2.38384C9.94335 2.08889 10.6047 1.93555 11.275 1.93555C11.9452 1.93555 12.6066 2.08889 13.2084 2.38384L18.1963 5.14861C18.7921 5.52313 19.2895 6.03487 19.647 6.64102C20.0045 7.24718 20.2116 7.93012 20.2511 8.63273Z" stroke="#00ADB5" stroke-width="2" stroke-linecap="round" stroke-linejoin="round"/>
</svg>
