<svg width="28" height="27" viewBox="0 0 28 27" fill="none" xmlns="http://www.w3.org/2000/svg">
<path d="M14.9292 3.22457L21.4324 6.11246C23.3063 6.93915 23.3063 8.30594 21.4324 9.13262L14.9292 12.0205C14.1907 12.3512 12.9782 12.3512 12.2397 12.0205L5.73642 9.13262C3.8626 8.30594 3.8626 6.93915 5.73642 6.11246L12.2397 3.22457C12.9782 2.89389 14.1907 2.89389 14.9292 3.22457Z" stroke="white" stroke-width="1.5" stroke-linecap="round" stroke-linejoin="round"/>
<path d="M3.89551 12.1309C3.89551 13.0567 4.58992 14.1259 5.43866 14.5007L12.9229 17.8295C13.4961 18.083 14.1464 18.083 14.7086 17.8295L22.1928 14.5007C23.0416 14.1259 23.736 13.0567 23.736 12.1309" stroke="white" stroke-width="1.5" stroke-linecap="round" stroke-linejoin="round"/>
<path d="M3.89551 17.6426C3.89551 18.6677 4.50174 19.5936 5.43866 20.0124L12.9229 23.3412C13.4961 23.5947 14.1464 23.5947 14.7086 23.3412L22.1928 20.0124C23.1298 19.5936 23.736 18.6677 23.736 17.6426" stroke="white" stroke-width="1.5" stroke-linecap="round" stroke-linejoin="round"/>
</svg>
