<svg width="16" height="16" viewBox="0 0 16 16" fill="none" xmlns="http://www.w3.org/2000/svg">
<path d="M3.3335 6.66732H4.66683C6.00016 6.66732 6.66683 6.00065 6.66683 4.66732V3.33398C6.66683 2.00065 6.00016 1.33398 4.66683 1.33398H3.3335C2.00016 1.33398 1.3335 2.00065 1.3335 3.33398V4.66732C1.3335 6.00065 2.00016 6.66732 3.3335 6.66732Z" stroke="white" stroke-miterlimit="10" stroke-linecap="round" stroke-linejoin="round"/>
<path d="M11.3335 6.66732H12.6668C14.0002 6.66732 14.6668 6.00065 14.6668 4.66732V3.33398C14.6668 2.00065 14.0002 1.33398 12.6668 1.33398H11.3335C10.0002 1.33398 9.3335 2.00065 9.3335 3.33398V4.66732C9.3335 6.00065 10.0002 6.66732 11.3335 6.66732Z" stroke="white" stroke-miterlimit="10" stroke-linecap="round" stroke-linejoin="round"/>
<path d="M11.3335 14.6673H12.6668C14.0002 14.6673 14.6668 14.0007 14.6668 12.6673V11.334C14.6668 10.0007 14.0002 9.33398 12.6668 9.33398H11.3335C10.0002 9.33398 9.3335 10.0007 9.3335 11.334V12.6673C9.3335 14.0007 10.0002 14.6673 11.3335 14.6673Z" stroke="white" stroke-miterlimit="10" stroke-linecap="round" stroke-linejoin="round"/>
<path d="M3.3335 14.6673H4.66683C6.00016 14.6673 6.66683 14.0007 6.66683 12.6673V11.334C6.66683 10.0007 6.00016 9.33398 4.66683 9.33398H3.3335C2.00016 9.33398 1.3335 10.0007 1.3335 11.334V12.6673C1.3335 14.0007 2.00016 14.6673 3.3335 14.6673Z" stroke="white" stroke-miterlimit="10" stroke-linecap="round" stroke-linejoin="round"/>
</svg>
