<svg width="19" height="19" viewBox="0 0 19 19" fill="none" xmlns="http://www.w3.org/2000/svg">
<path d="M14.4093 10.4525C14.2456 10.6115 14.1198 10.8052 14.0409 11.0194C13.9621 11.2335 13.9324 11.4626 13.9539 11.6898C14.0031 12.0873 14.1979 12.4525 14.5008 12.7147C14.8036 12.9768 15.1929 13.1174 15.5934 13.1091H17.0352V14.0123C17.0336 14.7686 16.7324 15.4935 16.1976 16.0283C15.6628 16.5631 14.9379 16.8643 14.1816 16.8659H5.46883C4.71252 16.8643 3.98765 16.5631 3.45286 16.0283C2.91806 15.4935 2.61689 14.7686 2.61523 14.0123L2.61523 8.90438C2.61689 8.14806 2.91806 7.4232 3.45286 6.88841C3.98765 6.35361 4.71252 6.05243 5.46883 6.05078H14.1816C14.9379 6.05243 15.6628 6.35361 16.1976 6.88841C16.7324 7.4232 17.0336 8.14806 17.0352 8.90438V9.99715H15.5008C15.2976 9.99584 15.0963 10.0355 14.9087 10.1137C14.7212 10.192 14.5513 10.3072 14.4093 10.4525Z" fill="#00ADB5" stroke="white" stroke-width="2" stroke-linecap="round" stroke-linejoin="round"/>
<path d="M2.61524 9.58706V6.11858C2.61418 5.67877 2.74734 5.24911 2.99692 4.88697C3.2465 4.52484 3.60063 4.24747 4.01201 4.09191L10.0376 1.81504C10.2559 1.73289 10.491 1.70493 10.7225 1.73355C10.954 1.76218 11.1751 1.84653 11.3669 1.97938C11.5587 2.11223 11.7154 2.28961 11.8235 2.49631C11.9317 2.70301 11.9881 2.93286 11.9879 3.16615V6.04977" fill="#00ADB5"/>
<path d="M2.61524 9.58706V6.11858C2.61418 5.67877 2.74734 5.24911 2.99692 4.88697C3.2465 4.52484 3.60063 4.24747 4.01201 4.09191L10.0376 1.81504C10.2559 1.73289 10.491 1.70493 10.7225 1.73355C10.954 1.76218 11.1751 1.84653 11.3669 1.97938C11.5587 2.11223 11.7154 2.28961 11.8235 2.49631C11.9317 2.70301 11.9881 2.93286 11.9879 3.16615V6.04977" stroke="white" stroke-width="2" stroke-linecap="round" stroke-linejoin="round"/>
<path d="M17.8398 10.7705V12.3343C17.8384 12.5365 17.7585 12.7303 17.6169 12.8746C17.4753 13.019 17.2832 13.1027 17.081 13.1081H15.5935C15.1931 13.1164 14.8038 12.9758 14.5009 12.7137C14.1981 12.4515 14.0032 12.0863 13.9541 11.6888C13.9325 11.4616 13.9623 11.2325 14.0411 11.0184C14.1199 10.8042 14.2458 10.6105 14.4094 10.4515C14.5516 10.306 14.7217 10.1907 14.9094 10.1125C15.0972 10.0342 15.2988 9.99465 15.5022 9.99613H17.081C17.2833 10.0015 17.4755 10.0853 17.6171 10.2298C17.7587 10.3743 17.8385 10.5682 17.8398 10.7705Z" fill="#00ADB5" stroke="white" stroke-width="2" stroke-linecap="round" stroke-linejoin="round"/>
<path d="M6.03125 9.27539H11.3437H6.03125Z" fill="#00ADB5"/>
<path d="M6.03125 9.27539H11.3437" stroke="white" stroke-width="2" stroke-linecap="round" stroke-linejoin="round"/>
</svg>
