<svg width="25" height="25" viewBox="0 0 25 25" fill="none" xmlns="http://www.w3.org/2000/svg">
<path d="M16.2293 12.5007C16.2293 14.5632 14.5627 16.2298 12.5002 16.2298C10.4377 16.2298 8.771 14.5632 8.771 12.5007C8.771 10.4382 10.4377 8.77148 12.5002 8.77148C14.5627 8.77148 16.2293 10.4382 16.2293 12.5007Z" stroke="white" stroke-linecap="round" stroke-linejoin="round"/>
<path d="M12.4998 21.1146C16.1769 21.1146 19.604 18.9479 21.9894 15.1979C22.9269 13.7292 22.9269 11.2604 21.9894 9.79167C19.604 6.04167 16.1769 3.875 12.4998 3.875C8.82275 3.875 5.39567 6.04167 3.01025 9.79167C2.07275 11.2604 2.07275 13.7292 3.01025 15.1979C5.39567 18.9479 8.82275 21.1146 12.4998 21.1146Z" stroke="white" stroke-linecap="round" stroke-linejoin="round"/>
</svg>
