<svg width="25" height="24" viewBox="0 0 25 24" fill="none" xmlns="http://www.w3.org/2000/svg">
<path d="M5.51881 2.1001H18.6851C19.7822 2.1001 20.6799 3.0001 20.6799 4.1001V6.3001C20.6799 7.1001 20.1812 8.1001 19.6825 8.6001L15.3935 12.4001C14.795 12.9001 14.396 13.9001 14.396 14.7001V19.0001C14.396 19.6001 13.9971 20.4001 13.4984 20.7001L12.1019 21.6001C10.8053 22.4001 9.00986 21.5001 9.00986 19.9001V14.6001C9.00986 13.9001 8.61088 13.0001 8.21191 12.5001L4.42162 8.5001C3.9229 8.0001 3.52393 7.1001 3.52393 6.5001V4.2001C3.52393 3.0001 4.42162 2.1001 5.51881 2.1001Z" stroke="white" stroke-width="1.5" stroke-miterlimit="10" stroke-linecap="round" stroke-linejoin="round"/>
<path d="M11.0351 2.1001L6.11768 10.0001" stroke="white" stroke-width="1.5" stroke-miterlimit="10" stroke-linecap="round" stroke-linejoin="round"/>
</svg>
