<svg width="26" height="26" viewBox="0 0 26 26" fill="none" xmlns="http://www.w3.org/2000/svg">
<path d="M13 1V2.33333V1ZM13 23.6666V25V23.6666ZM25 13H23.6666H25ZM2.33333 13H1H2.33333ZM21.4853 21.4853L20.5426 20.5426L21.4853 21.4853ZM5.45733 5.45733L4.51465 4.51465L5.45733 5.45733ZM21.4853 4.51465L20.5426 5.45733L21.4853 4.51465ZM5.45733 20.5426L4.51465 21.4853L5.45733 20.5426ZM18.3333 13C18.3333 14.4145 17.7714 15.771 16.7712 16.7712C15.771 17.7714 14.4145 18.3333 13 18.3333C11.5855 18.3333 10.2289 17.7714 9.22875 16.7712C8.22854 15.771 7.66664 14.4145 7.66664 13C7.66664 11.5855 8.22854 10.2289 9.22875 9.22875C10.2289 8.22854 11.5855 7.66664 13 7.66664C14.4145 7.66664 15.771 8.22854 16.7712 9.22875C17.7714 10.2289 18.3333 11.5855 18.3333 13Z" stroke="black" stroke-width="1.83333" stroke-linecap="round" stroke-linejoin="round"/>
</svg>
