<svg width="26" height="26" viewBox="0 0 26 26" fill="none" xmlns="http://www.w3.org/2000/svg">
<path d="M13.227 1.89453V3.15424V1.89453ZM13.227 23.3096V24.5694V23.3096ZM24.5645 13.2319H23.3047H24.5645ZM3.14936 13.2319H1.88965H3.14936ZM21.2438 21.2487L20.3532 20.3581L21.2438 21.2487ZM6.10087 6.10575L5.21024 5.21512L6.10087 6.10575ZM21.2438 5.21512L20.3532 6.10575L21.2438 5.21512ZM6.10087 20.3581L5.21024 21.2487L6.10087 20.3581ZM18.2659 13.2319C18.2659 14.5683 17.735 15.8499 16.79 16.7949C15.8451 17.7399 14.5634 18.2707 13.227 18.2707C11.8907 18.2707 10.609 17.7399 9.66404 16.7949C8.71907 15.8499 8.18819 14.5683 8.18819 13.2319C8.18819 11.8955 8.71907 10.6139 9.66404 9.66893C10.609 8.72395 11.8907 8.19307 13.227 8.19307C14.5634 8.19307 15.8451 8.72395 16.79 9.66893C17.735 10.6139 18.2659 11.8955 18.2659 13.2319Z" stroke="black" stroke-width="1.83333" stroke-linecap="round" stroke-linejoin="round"/>
</svg>
