<svg width="24" height="24" viewBox="0 0 24 24" fill="none" xmlns="http://www.w3.org/2000/svg">
<path d="M17.25 9.75C17.25 10.8375 16.9275 11.835 16.3725 12.6675C15.5625 13.8675 14.28 14.715 12.7875 14.9325C12.5325 14.9775 12.27 15 12 15C11.73 15 11.4675 14.9775 11.2125 14.9325C9.72 14.715 8.4375 13.8675 7.6275 12.6675C7.0725 11.835 6.75 10.8375 6.75 9.75C6.75 6.8475 9.0975 4.5 12 4.5C14.9025 4.5 17.25 6.8475 17.25 9.75Z" stroke="white" stroke-linecap="round" stroke-linejoin="round"/>
<path d="M18.9373 16.8533L17.6998 17.1458C17.4223 17.2133 17.2048 17.4233 17.1448 17.7008L16.8823 18.8033C16.7398 19.4033 15.9748 19.5833 15.5773 19.1108L11.9998 15.0008L8.42231 19.1183C8.02481 19.5908 7.25981 19.4108 7.11731 18.8108L6.85481 17.7083C6.78731 17.4308 6.56981 17.2133 6.29981 17.1533L5.06231 16.8608C4.49231 16.7258 4.28981 16.0133 4.70231 15.6008L7.62731 12.6758C8.43731 13.8758 9.71982 14.7233 11.2123 14.9408C11.4673 14.9858 11.7298 15.0083 11.9998 15.0083C12.2698 15.0083 12.5323 14.9858 12.7873 14.9408C14.2798 14.7233 15.5623 13.8758 16.3723 12.6758L19.2973 15.6008C19.7098 16.0058 19.5073 16.7183 18.9373 16.8533Z" stroke="white" stroke-linecap="round" stroke-linejoin="round"/>
<path d="M12.435 7.485L12.8775 8.36999C12.9375 8.48999 13.095 8.61 13.2375 8.6325L14.04 8.76749C14.55 8.84999 14.67 9.225 14.3025 9.5925L13.68 10.215C13.575 10.32 13.515 10.5225 13.5525 10.6725L13.7325 11.445C13.875 12.0525 13.5525 12.2925 13.0125 11.97L12.2625 11.5275C12.1275 11.445 11.9025 11.445 11.7675 11.5275L11.0175 11.97C10.4775 12.285 10.155 12.0525 10.2975 11.445L10.4775 10.6725C10.5075 10.53 10.455 10.32 10.35 10.215L9.72748 9.5925C9.35998 9.225 9.47998 8.85749 9.98998 8.76749L10.7925 8.6325C10.9275 8.61 11.085 8.48999 11.145 8.36999L11.5875 7.485C11.805 7.005 12.195 7.005 12.435 7.485Z" stroke="white" stroke-linecap="round" stroke-linejoin="round"/>
</svg>
