<svg width="23" height="22" viewBox="0 0 23 22" fill="none" xmlns="http://www.w3.org/2000/svg">
<path d="M12.0606 22C9.03145 22 6.12637 20.7996 3.98442 18.6631C1.84248 16.5265 0.63916 13.6287 0.63916 10.6072C0.63916 5.99114 3.29759 1.85242 7.41376 0.0654405C7.55883 0.0023695 7.71958 -0.0156507 7.87504 0.0137273C8.03053 0.0431053 8.17355 0.118518 8.28544 0.230127C8.39733 0.341737 8.47293 0.484379 8.50239 0.639474C8.53184 0.794569 8.51377 0.954919 8.45054 1.09962C7.97794 2.18193 7.72834 3.56822 7.72834 5.10723C7.72834 10.5227 12.1453 14.9286 17.5744 14.9286C19.1173 14.9286 20.5071 14.6796 21.592 14.2082C21.7373 14.1451 21.898 14.1271 22.0535 14.1565C22.2088 14.1859 22.3518 14.2612 22.4637 14.3729C22.5758 14.4845 22.6513 14.6271 22.6807 14.7822C22.7102 14.9373 22.6921 15.0977 22.6289 15.2424C20.8373 19.3482 16.6883 22 12.0606 22Z" fill="white"/>
</svg>
