<svg width="24" height="25" viewBox="0 0 24 25" fill="none" xmlns="http://www.w3.org/2000/svg">
<path d="M23.1211 19.4698C23.1211 19.8658 23.033 20.2728 22.8457 20.6688C22.6584 21.0648 22.416 21.4388 22.0966 21.7908C21.5567 22.3848 20.9619 22.8138 20.2898 23.0888C19.6289 23.3638 18.9128 23.5068 18.1416 23.5068C17.0179 23.5068 15.8171 23.2428 14.5502 22.7038C13.2833 22.1648 12.0164 21.4388 10.7606 20.5258C9.49365 19.6018 8.29285 18.5788 7.14713 17.4458C6.01243 16.3018 4.98789 15.1028 4.07352 13.8488C3.17017 12.5948 2.44308 11.3408 1.91428 10.0978C1.38549 8.84384 1.12109 7.64484 1.12109 6.50084C1.12109 5.75284 1.25329 5.03784 1.51769 4.37784C1.78209 3.70684 2.20071 3.09084 2.78459 2.54084C3.48965 1.84784 4.2608 1.50684 5.07603 1.50684C5.38449 1.50684 5.69295 1.57284 5.96836 1.70484C6.25479 1.83684 6.50817 2.03484 6.70647 2.32084L9.26231 5.91784C9.4606 6.19284 9.60382 6.44584 9.70297 6.68784C9.80212 6.91884 9.8572 7.14984 9.8572 7.35884C9.8572 7.62284 9.78008 7.88684 9.62585 8.13984C9.48264 8.39284 9.27332 8.65684 9.00893 8.92084L8.17167 9.78984C8.05049 9.91084 7.99541 10.0538 7.99541 10.2298C7.99541 10.3178 8.00642 10.3948 8.02846 10.4828C8.06151 10.5708 8.09455 10.6368 8.11659 10.7028C8.31489 11.0658 8.6564 11.5388 9.14112 12.1108C9.63687 12.6828 10.1657 13.2658 10.7385 13.8488C11.3334 14.4318 11.9063 14.9708 12.4901 15.4658C13.063 15.9498 13.5367 16.2798 13.9113 16.4778C13.9664 16.4998 14.0325 16.5328 14.1096 16.5658C14.1977 16.5988 14.2858 16.6098 14.385 16.6098C14.5723 16.6098 14.7155 16.5438 14.8367 16.4228L15.6739 15.5978C15.9493 15.3228 16.2137 15.1138 16.4671 14.9818C16.7205 14.8278 16.9739 14.7508 17.2493 14.7508C17.4586 14.7508 17.6789 14.7948 17.9213 14.8938C18.1637 14.9928 18.417 15.1358 18.6925 15.3228L22.3389 17.9078C22.6254 18.1058 22.8236 18.3368 22.9448 18.6118C23.055 18.8868 23.1211 19.1618 23.1211 19.4698Z" stroke="white" stroke-width="1.5" stroke-miterlimit="10"/>
</svg>
