<svg width="21" height="20" viewBox="0 0 21 20" fill="none" xmlns="http://www.w3.org/2000/svg">
<path d="M19.7265 13.5046L15.2846 11.7129C15.0948 11.6368 14.8839 11.6207 14.6836 11.6672C14.4834 11.7136 14.3045 11.8201 14.1741 11.9704L12.2069 14.2325C9.11971 12.8625 6.63519 10.5241 5.17959 7.61849L7.58299 5.76706C7.74309 5.64451 7.8564 5.4762 7.90578 5.28762C7.95516 5.09903 7.93791 4.90044 7.85664 4.72191L5.95296 0.541277C5.86377 0.348822 5.70603 0.191689 5.50693 0.0969727C5.30783 0.00225648 5.07985 -0.024106 4.86231 0.022431L0.737676 0.91828C0.527941 0.963863 0.340816 1.07501 0.206841 1.23358C0.0728654 1.39214 -4.83142e-05 1.58877 2.40189e-08 1.79136C2.40189e-08 11.3657 8.24531 19.1111 18.4022 19.1111C18.6175 19.1112 18.8266 19.0427 18.9951 18.9166C19.1637 18.7905 19.2818 18.6143 19.3303 18.4168L20.2821 14.5348C20.3312 14.3291 20.3026 14.1137 20.2012 13.9256C20.0998 13.7376 19.9319 13.5887 19.7265 13.5046Z" fill="white"/>
</svg>
