<svg width="24" height="25" viewBox="0 0 24 25" fill="none" xmlns="http://www.w3.org/2000/svg">
<path d="M22 7.49805H16" stroke="white" stroke-width="1.5" stroke-miterlimit="10" stroke-linecap="round" stroke-linejoin="round"/>
<path d="M6 7.49805H2" stroke="white" stroke-width="1.5" stroke-miterlimit="10" stroke-linecap="round" stroke-linejoin="round"/>
<path d="M10 10.998C11.933 10.998 13.5 9.43104 13.5 7.49805C13.5 5.56505 11.933 3.99805 10 3.99805C8.067 3.99805 6.5 5.56505 6.5 7.49805C6.5 9.43104 8.067 10.998 10 10.998Z" stroke="white" stroke-width="1.5" stroke-miterlimit="10" stroke-linecap="round" stroke-linejoin="round"/>
<path d="M22 18.498H18" stroke="white" stroke-width="1.5" stroke-miterlimit="10" stroke-linecap="round" stroke-linejoin="round"/>
<path d="M8 18.498H2" stroke="white" stroke-width="1.5" stroke-miterlimit="10" stroke-linecap="round" stroke-linejoin="round"/>
<path d="M14 21.998C15.933 21.998 17.5 20.431 17.5 18.498C17.5 16.5651 15.933 14.998 14 14.998C12.067 14.998 10.5 16.5651 10.5 18.498C10.5 20.431 12.067 21.998 14 21.998Z" stroke="white" stroke-width="1.5" stroke-miterlimit="10" stroke-linecap="round" stroke-linejoin="round"/>
</svg>
