<svg width="14" height="14" viewBox="0 0 14 14" fill="none" xmlns="http://www.w3.org/2000/svg">
<path d="M7.72307 1.017L9.12307 3.807C9.19125 3.94258 9.29127 4.05962 9.41457 4.1481C9.53788 4.23657 9.68079 4.29384 9.83107 4.315L12.9561 4.765C13.1286 4.78776 13.2913 4.85876 13.4253 4.96983C13.5593 5.0809 13.6593 5.22753 13.7137 5.39287C13.7681 5.55821 13.7748 5.73555 13.7329 5.90451C13.6911 6.07347 13.6024 6.22719 13.4771 6.348L11.2131 8.52C11.1039 8.62427 11.0221 8.75379 10.9749 8.89714C10.9276 9.04049 10.9163 9.19326 10.9421 9.342L11.4751 12.407C11.5029 12.5794 11.4821 12.7561 11.415 12.9172C11.3479 13.0784 11.2371 13.2176 11.0951 13.3193C10.9532 13.4209 10.7857 13.4809 10.6115 13.4925C10.4372 13.5041 10.2633 13.4669 10.1091 13.385L7.31707 11.937C7.18167 11.867 7.03148 11.8305 6.87907 11.8305C6.72666 11.8305 6.57647 11.867 6.44107 11.937L3.64807 13.385C3.49391 13.4666 3.32004 13.5036 3.146 13.4919C2.97196 13.4801 2.80464 13.4201 2.66284 13.3185C2.52105 13.2169 2.41039 13.0778 2.3433 12.9168C2.27621 12.7558 2.25535 12.5792 2.28307 12.407L2.81507 9.342C2.84079 9.19326 2.82953 9.04049 2.78227 8.89714C2.73501 8.75379 2.6532 8.62427 2.54407 8.52L0.286068 6.349C0.160773 6.22825 0.0720749 6.07462 0.030163 5.90573C-0.0117489 5.73685 -0.00517511 5.55957 0.0491292 5.39426C0.103434 5.22894 0.203266 5.0823 0.33716 4.97116C0.471054 4.86003 0.633579 4.78892 0.806068 4.766L3.93107 4.316C4.08132 4.29476 4.2242 4.23746 4.34749 4.14899C4.47078 4.06053 4.57082 3.94353 4.63907 3.808L6.03907 1.018C6.1186 0.863256 6.23923 0.733417 6.38771 0.642729C6.53619 0.552041 6.70678 0.50401 6.88076 0.503906C7.05475 0.503803 7.2254 0.551632 7.37398 0.642143C7.52257 0.732655 7.64335 0.86235 7.72307 1.017Z" fill="#FCD900"/>
</svg>
