<svg width="16" height="14" viewBox="0 0 16 14" fill="none" xmlns="http://www.w3.org/2000/svg">
<path d="M8.72307 1.017L10.1231 3.807C10.1912 3.94258 10.2913 4.05962 10.4146 4.1481C10.5379 4.23657 10.6808 4.29384 10.8311 4.315L13.9561 4.765C14.1286 4.78776 14.2913 4.85876 14.4253 4.96983C14.5593 5.0809 14.6593 5.22753 14.7137 5.39287C14.7681 5.55821 14.7748 5.73555 14.7329 5.90451C14.6911 6.07347 14.6024 6.22719 14.4771 6.348L12.2131 8.52C12.1039 8.62427 12.0221 8.75379 11.9749 8.89714C11.9276 9.04049 11.9163 9.19326 11.9421 9.342L12.4751 12.407C12.5029 12.5794 12.4821 12.7561 12.415 12.9172C12.3479 13.0784 12.2371 13.2176 12.0951 13.3193C11.9532 13.4209 11.7857 13.4809 11.6115 13.4925C11.4372 13.5041 11.2633 13.4669 11.1091 13.385L8.31707 11.937C8.18167 11.867 8.03148 11.8305 7.87907 11.8305C7.72666 11.8305 7.57647 11.867 7.44107 11.937L4.64807 13.385C4.49391 13.4666 4.32004 13.5036 4.146 13.4919C3.97196 13.4801 3.80464 13.4201 3.66284 13.3185C3.52105 13.2169 3.41039 13.0778 3.3433 12.9168C3.27621 12.7558 3.25535 12.5792 3.28307 12.407L3.81507 9.342C3.84079 9.19326 3.82953 9.04049 3.78227 8.89714C3.73501 8.75379 3.6532 8.62427 3.54407 8.52L1.28607 6.349C1.16077 6.22825 1.07207 6.07462 1.03016 5.90573C0.988251 5.73685 0.994825 5.55957 1.04913 5.39426C1.10343 5.22894 1.20327 5.0823 1.33716 4.97116C1.47105 4.86003 1.63358 4.78892 1.80607 4.766L4.93107 4.316C5.08132 4.29476 5.2242 4.23746 5.34749 4.14899C5.47078 4.06053 5.57082 3.94353 5.63907 3.808L7.03907 1.018C7.1186 0.863256 7.23923 0.733417 7.38771 0.642729C7.53619 0.552041 7.70678 0.50401 7.88076 0.503906C8.05475 0.503803 8.2254 0.551632 8.37398 0.642143C8.52257 0.732655 8.64335 0.86235 8.72307 1.017V1.017Z" stroke="#FCD900" stroke-miterlimit="10" stroke-linecap="round" stroke-linejoin="round"/>
</svg>
