<svg width="32" height="32" viewBox="0 0 32 32" fill="none" xmlns="http://www.w3.org/2000/svg">
<path d="M25.3406 6.54102C22.8465 4.04102 19.5251 2.66602 15.9953 2.66602C8.70964 2.66602 2.78106 8.59459 2.78106 15.8803C2.78106 18.2077 3.38821 20.4815 4.54297 22.4874L2.66797 29.3327L9.67392 27.4934C11.6025 28.547 13.7751 29.1005 15.9894 29.1005H15.9953C23.2751 29.1005 29.3346 23.172 29.3346 15.8863C29.3346 12.3565 27.8346 9.04102 25.3406 6.54102ZM15.9953 26.8744C14.0192 26.8744 12.0846 26.3446 10.4001 25.3446L10.0013 25.1065L5.84654 26.1958L6.95368 22.1422L6.69178 21.7255C5.59059 19.9755 5.01321 17.9577 5.01321 15.8803C5.01321 9.82673 9.94178 4.89816 16.0013 4.89816C18.9358 4.89816 21.6918 6.04102 23.7632 8.1184C25.8346 10.1958 27.1084 12.9517 27.1025 15.8863C27.1025 21.9458 22.0489 26.8744 15.9953 26.8744ZM22.0192 18.6482C21.6918 18.4815 20.0668 17.6839 19.7632 17.5767C19.4596 17.4636 19.2394 17.4101 19.0192 17.7434C18.7989 18.0767 18.168 18.8148 17.9715 19.041C17.7811 19.2613 17.5846 19.291 17.2573 19.1243C15.3168 18.1541 14.043 17.3922 12.7632 15.1958C12.4239 14.6124 13.1025 14.6541 13.7334 13.3922C13.8406 13.172 13.787 12.9815 13.7037 12.8148C13.6203 12.6482 12.9596 11.0232 12.6858 10.3624C12.418 9.71959 12.1442 9.80887 11.9418 9.79697C11.7513 9.78506 11.5311 9.78506 11.3108 9.78506C11.0906 9.78506 10.7334 9.8684 10.4299 10.1958C10.1263 10.5291 9.27511 11.3267 9.27511 12.9517C9.27511 14.5767 10.4596 16.1482 10.6204 16.3684C10.787 16.5886 12.9477 19.922 16.2632 21.3565C18.3584 22.2613 19.1799 22.3386 20.2275 22.1839C20.8644 22.0886 22.1799 21.3863 22.4537 20.6124C22.7275 19.8386 22.7275 19.1779 22.6442 19.041C22.5668 18.8922 22.3465 18.8089 22.0192 18.6482Z" fill="white"/>
</svg>
